# xmcd CD database file
#
# Track frame offsets:
#	150
#	21138
#	36165
#	46130
#	57690
#	73158
#	84636
#	95443
#	106130
#	123559
#	134438
#	145938
#	164081
#	177410
#
# Disc length: 2520 seconds
#
# Revision: 1
# Processed by: cddbd v1.5.2PL0 Copyright (c) Steve Scherf et al.
# Submitted via: CDex 1.51
#
DISCID=cf09d60e
DTITLE=Barbara Carlotti - Les Lys Brisés
DYEAR=2006
DGENRE=Chanson
TTITLE0=Tunis
TTITLE1=Les lys brisés
TTITLE2=La vérité des astres
TTITLE3=D'accord
TTITLE4=Une rose pour Emily
TTITLE5=Cannes
TTITLE6=Silence
TTITLE7=Charlie the model
TTITLE8=Mélodie de la dernière pluie
TTITLE9=Mon corps alangui
TTITLE10=Peu importe
TTITLE11=La nuit des amants
TTITLE12=Trop tard
TTITLE13=Rien ne presse
EXTD=YEAR: 2006
EXTT0=
EXTT1=
EXTT2=
EXTT3=
EXTT4=
EXTT5=
EXTT6=
EXTT7=
EXTT8=
EXTT9=
EXTT10=
EXTT11=
EXTT12=
EXTT13=
PLAYORDER=
